# Blender v3.2.2 OBJ File: ''
# www.blender.org
mtllib axes.mtl
o Text.001
v 1.057512 4.533358 0.150000
v 0.804512 4.211358 0.150000
v 0.804512 3.851357 0.150000
v 0.706512 3.851357 0.150000
v 0.706512 4.212358 0.150000
v 0.453512 4.533358 0.150000
v 0.571512 4.533358 0.150000
v 0.754512 4.298357 0.150000
v 0.939512 4.533358 0.150000
v 1.057512 4.533358 -0.150000
v 0.804512 4.211358 -0.150000
v 0.804512 3.851357 -0.150000
v 0.706512 3.851357 -0.150000
v 0.706512 4.212358 -0.150000
v 0.453512 4.533358 -0.150000
v 0.571512 4.533358 -0.150000
v 0.754512 4.298357 -0.150000
v 0.939512 4.533358 -0.150000
v 1.057512 4.533358 -0.150000
v 1.057512 4.533358 0.150000
v 0.804512 4.211358 -0.150000
v 0.804512 4.211358 0.150000
v 0.804512 3.851357 -0.150000
v 0.804512 3.851357 0.150000
v 0.706512 3.851357 -0.150000
v 0.706512 3.851357 0.150000
v 0.706512 4.212358 -0.150000
v 0.706512 4.212358 0.150000
v 0.453512 4.533358 -0.150000
v 0.453512 4.533358 0.150000
v 0.571512 4.533358 -0.150000
v 0.571512 4.533358 0.150000
v 0.754512 4.298357 -0.150000
v 0.754512 4.298357 0.150000
v 0.939512 4.533358 -0.150000
v 0.939512 4.533358 0.150000
v -1.000000 -1.000000 1.000000
v -1.000000 1.000000 1.000000
v -1.000000 -1.000000 -1.000000
v -1.000000 1.000000 -1.000000
v 1.000000 -1.000000 1.000000
v 1.000000 1.000000 1.000000
v 1.000000 -1.000000 -1.000000
v 1.000000 1.000000 -1.000000
v 1.515651 -0.216807 0.216807
v 1.515651 0.216807 0.216807
v 1.515651 -0.216807 -0.216807
v 1.515651 0.216807 -0.216807
v 6.659036 -0.216807 0.216807
v 6.659036 0.216807 0.216807
v 6.659036 -0.216807 -0.216807
v 6.659036 0.216807 -0.216807
v 0.076828 -0.216807 -1.781563
v 0.076828 0.216807 -1.781563
v -0.356786 -0.216807 -1.781563
v -0.356786 0.216807 -1.781563
v 0.076828 -0.216807 -6.924948
v 0.076828 0.216807 -6.924948
v -0.356785 -0.216807 -6.924948
v -0.356785 0.216807 -6.924948
v 0.211797 6.563780 0.237070
v 0.211797 6.563780 -0.196543
v -0.221816 6.563780 0.237071
v -0.221817 6.563780 -0.196543
v 0.211797 1.420395 0.237070
v 0.211797 1.420395 -0.196543
v -0.221816 1.420395 0.237071
v -0.221816 1.420395 -0.196543
v 4.491105 0.545275 0.150000
v 4.373105 0.545275 0.150000
v 4.141105 0.827275 0.150000
v 3.906105 0.545275 0.150000
v 3.787105 0.545275 0.150000
v 4.081105 0.898275 0.150000
v 3.808105 1.227275 0.150000
v 3.927105 1.227275 0.150000
v 4.141105 0.967275 0.150000
v 4.354105 1.227275 0.150000
v 4.472106 1.227275 0.150000
v 4.200105 0.898275 0.150000
v 4.491105 0.545275 -0.150000
v 4.373105 0.545275 -0.150000
v 4.141105 0.827275 -0.150000
v 3.906105 0.545275 -0.150000
v 3.787105 0.545275 -0.150000
v 4.081105 0.898275 -0.150000
v 3.808105 1.227275 -0.150000
v 3.927105 1.227275 -0.150000
v 4.141105 0.967275 -0.150000
v 4.354105 1.227275 -0.150000
v 4.472106 1.227275 -0.150000
v 4.200105 0.898275 -0.150000
v 4.491105 0.545275 -0.150000
v 4.491105 0.545275 0.150000
v 4.373105 0.545275 -0.150000
v 4.373105 0.545275 0.150000
v 4.141105 0.827275 -0.150000
v 4.141105 0.827275 0.150000
v 3.906105 0.545275 -0.150000
v 3.906105 0.545275 0.150000
v 3.787105 0.545275 -0.150000
v 3.787105 0.545275 0.150000
v 4.081105 0.898275 -0.150000
v 4.081105 0.898275 0.150000
v 3.808105 1.227275 -0.150000
v 3.808105 1.227275 0.150000
v 3.927105 1.227275 -0.150000
v 3.927105 1.227275 0.150000
v 4.141105 0.967275 -0.150000
v 4.141105 0.967275 0.150000
v 4.354105 1.227275 -0.150000
v 4.354105 1.227275 0.150000
v 4.472106 1.227275 -0.150000
v 4.472106 1.227275 0.150000
v 4.200105 0.898275 -0.150000
v 4.200105 0.898275 0.150000
v 0.496512 0.342713 -3.521118
v 1.084512 0.342713 -3.521118
v 0.650512 -0.251287 -3.521118
v 1.084512 -0.251287 -3.521118
v 1.084512 -0.339287 -3.521118
v 0.469512 -0.339287 -3.521118
v 0.903512 0.254713 -3.521118
v 0.496512 0.254713 -3.521118
v 0.496512 0.342713 -3.821118
v 1.084512 0.342713 -3.821118
v 0.650512 -0.251287 -3.821118
v 1.084512 -0.251287 -3.821118
v 1.084512 -0.339287 -3.821118
v 0.469512 -0.339287 -3.821118
v 0.903512 0.254713 -3.821118
v 0.496512 0.254713 -3.821118
v 0.496512 0.342713 -3.821118
v 0.496512 0.342713 -3.521118
v 1.084512 0.342713 -3.821118
v 1.084512 0.342713 -3.521118
v 0.650512 -0.251287 -3.821118
v 0.650512 -0.251287 -3.521118
v 1.084512 -0.251287 -3.821118
v 1.084512 -0.251287 -3.521118
v 1.084512 -0.339287 -3.821118
v 1.084512 -0.339287 -3.521118
v 0.469512 -0.339287 -3.821118
v 0.469512 -0.339287 -3.521118
v 0.903512 0.254713 -3.821118
v 0.903512 0.254713 -3.521118
v 0.496512 0.254713 -3.821118
v 0.496512 0.254713 -3.521118
vt 0.500000 0.000000
vt 0.750000 0.000000
vt 0.625000 0.000000
vt 0.875000 0.000000
vt 0.000000 0.000000
vt 1.000000 0.000000
vt 0.125000 0.000000
vt 0.375000 0.000000
vt 0.250000 0.000000
vt 0.500000 0.000000
vt 0.625000 0.000000
vt 0.750000 0.000000
vt 0.875000 0.000000
vt 1.000000 0.000000
vt 0.000000 0.000000
vt 0.125000 0.000000
vt 0.375000 0.000000
vt 0.250000 0.000000
vt 0.375000 0.000000
vt 0.625000 0.000000
vt 0.625000 0.250000
vt 0.375000 0.250000
vt 0.625000 0.500000
vt 0.375000 0.500000
vt 0.625000 0.750000
vt 0.375000 0.750000
vt 0.625000 1.000000
vt 0.375000 1.000000
vt 0.125000 0.500000
vt 0.125000 0.750000
vt 0.875000 0.500000
vt 0.875000 0.750000
vt 0.375000 0.000000
vt 0.625000 0.000000
vt 0.625000 0.250000
vt 0.375000 0.250000
vt 0.625000 0.500000
vt 0.375000 0.500000
vt 0.625000 0.750000
vt 0.375000 0.750000
vt 0.625000 1.000000
vt 0.375000 1.000000
vt 0.125000 0.500000
vt 0.125000 0.750000
vt 0.875000 0.500000
vt 0.875000 0.750000
vt 0.375000 0.000000
vt 0.625000 0.000000
vt 0.625000 0.250000
vt 0.375000 0.250000
vt 0.625000 0.500000
vt 0.375000 0.500000
vt 0.625000 0.750000
vt 0.375000 0.750000
vt 0.625000 1.000000
vt 0.375000 1.000000
vt 0.125000 0.500000
vt 0.125000 0.750000
vt 0.875000 0.500000
vt 0.875000 0.750000
vt 0.375000 0.000000
vt 0.625000 0.000000
vt 0.625000 0.250000
vt 0.375000 0.250000
vt 0.625000 0.500000
vt 0.375000 0.500000
vt 0.625000 0.750000
vt 0.375000 0.750000
vt 0.625000 1.000000
vt 0.375000 1.000000
vt 0.125000 0.500000
vt 0.125000 0.750000
vt 0.875000 0.500000
vt 0.875000 0.750000
vt 0.454545 0.000000
vt 0.636364 0.000000
vt 0.545455 0.000000
vt 0.727273 0.000000
vt 0.909091 0.000000
vt 0.818182 0.000000
vt 1.000000 0.000000
vt 0.363636 0.000000
vt 0.181818 0.000000
vt 0.000000 0.000000
vt 0.272727 0.000000
vt 0.090909 0.000000
vt 0.454545 0.000000
vt 0.545455 0.000000
vt 0.636364 0.000000
vt 0.727273 0.000000
vt 0.818182 0.000000
vt 0.909091 0.000000
vt 1.000000 0.000000
vt 0.363636 0.000000
vt 0.181818 0.000000
vt 0.000000 0.000000
vt 0.272727 0.000000
vt 0.090909 0.000000
vt 1.000000 0.000000
vt 0.142857 0.000000
vt 0.000000 0.000000
vt 0.857143 0.000000
vt 0.285714 0.000000
vt 0.714286 0.000000
vt 0.428571 0.000000
vt 0.571429 0.000000
vt 1.000000 0.000000
vt 0.000000 0.000000
vt 0.142857 0.000000
vt 0.857143 0.000000
vt 0.285714 0.000000
vt 0.714286 0.000000
vt 0.428571 0.000000
vt 0.571429 0.000000
vt 0.000000 1.000000
vt 0.111111 1.000000
vt 0.111111 0.000000
vt 0.000000 0.000000
vt 0.222222 1.000000
vt 0.222222 0.000000
vt 0.333333 1.000000
vt 0.333333 0.000000
vt 0.444444 1.000000
vt 0.444444 0.000000
vt 0.555556 1.000000
vt 0.555556 0.000000
vt 0.666667 1.000000
vt 0.666667 0.000000
vt 0.777778 1.000000
vt 0.777778 0.000000
vt 0.888889 1.000000
vt 0.888889 0.000000
vt 1.000000 1.000000
vt 1.000000 0.000000
vt 0.000000 1.000000
vt 0.083333 1.000000
vt 0.083333 0.000000
vt 0.000000 0.000000
vt 0.166667 1.000000
vt 0.166667 0.000000
vt 0.250000 1.000000
vt 0.250000 0.000000
vt 0.333333 1.000000
vt 0.333333 0.000000
vt 0.416667 1.000000
vt 0.416667 0.000000
vt 0.500000 1.000000
vt 0.500000 0.000000
vt 0.583333 1.000000
vt 0.583333 0.000000
vt 0.666667 1.000000
vt 0.666667 0.000000
vt 0.750000 1.000000
vt 0.750000 0.000000
vt 0.833333 1.000000
vt 0.833333 0.000000
vt 0.916667 1.000000
vt 0.916667 0.000000
vt 1.000000 1.000000
vt 1.000000 0.000000
vt 0.000000 1.000000
vt 0.125000 1.000000
vt 0.125000 0.000000
vt 0.000000 0.000000
vt 0.250000 1.000000
vt 0.250000 0.000000
vt 0.375000 1.000000
vt 0.375000 0.000000
vt 0.500000 1.000000
vt 0.500000 0.000000
vt 0.625000 1.000000
vt 0.625000 0.000000
vt 0.750000 1.000000
vt 0.750000 0.000000
vt 0.875000 1.000000
vt 0.875000 0.000000
vt 1.000000 1.000000
vt 1.000000 0.000000
vn 0.0000 0.0000 1.0000
vn 0.0000 -0.0000 -1.0000
vn -1.0000 0.0000 0.0000
vn 1.0000 0.0000 0.0000
vn 0.0000 -1.0000 0.0000
vn 0.0000 1.0000 0.0000
vn 0.8994 0.4371 0.0000
vn 0.9451 -0.3269 0.0000
vn 0.7071 -0.7071 0.0000
vn -0.7071 -0.7071 0.0000
vn -0.9448 -0.3276 0.0000
vn -0.8997 0.4365 0.0000
vn 0.4391 0.8984 0.0000
vn 0.0026 1.0000 0.0000
vn -0.4367 0.8996 0.0000
vn 0.9045 -0.4266 0.0000
vn -0.4270 -0.9042 0.0000
vn -0.0032 -1.0000 0.0000
vn 0.4242 -0.9056 0.0000
vn -0.9055 -0.4243 0.0000
vn -1.0000 0.0009 0.0000
vn -0.9051 0.4251 0.0000
vn 0.4269 0.9043 0.0000
vn -0.0011 1.0000 0.0000
vn -0.4279 0.9038 0.0000
vn 0.9048 0.4259 0.0000
vn 1.0000 -0.0007 0.0000
vn -0.7071 0.7071 0.0000
vn 0.8916 0.4528 0.0000
vn 0.7071 0.7071 0.0000
vn -0.8916 -0.4528 0.0000
usemtl None
s off
f 5/1/1 7/2/1 6/3/1
f 5/1/1 8/4/1 7/2/1
f 8/4/1 1/5/1 9/6/1
f 8/4/1 2/7/1 1/5/1
f 5/1/1 2/7/1 8/4/1
f 4/8/1 2/7/1 5/1/1
f 4/8/1 3/9/1 2/7/1
f 14/10/2 15/11/2 16/12/2
f 14/10/2 16/12/2 17/13/2
f 17/13/2 18/14/2 10/15/2
f 17/13/2 10/15/2 11/16/2
f 14/10/2 17/13/2 11/16/2
f 13/17/2 14/10/2 11/16/2
f 13/17/2 11/16/2 12/18/2
f 37/19/3 38/20/3 40/21/3 39/22/3
f 39/22/2 40/21/2 44/23/2 43/24/2
f 43/24/4 44/23/4 42/25/4 41/26/4
f 41/26/1 42/25/1 38/27/1 37/28/1
f 39/29/5 43/24/5 41/26/5 37/30/5
f 44/23/6 40/31/6 38/32/6 42/25/6
f 45/33/3 46/34/3 48/35/3 47/36/3
f 47/36/2 48/35/2 52/37/2 51/38/2
f 51/38/4 52/37/4 50/39/4 49/40/4
f 49/40/1 50/39/1 46/41/1 45/42/1
f 47/43/5 51/38/5 49/40/5 45/44/5
f 52/37/6 48/45/6 46/46/6 50/39/6
f 53/47/1 54/48/1 56/49/1 55/50/1
f 55/50/3 56/49/3 60/51/3 59/52/3
f 59/52/2 60/51/2 58/53/2 57/54/2
f 57/54/4 58/53/4 54/55/4 53/56/4
f 55/57/5 59/52/5 57/54/5 53/58/5
f 60/51/6 56/59/6 54/60/6 58/53/6
f 61/61/6 62/62/6 64/63/6 63/64/6
f 63/64/3 64/63/3 68/65/3 67/66/3
f 67/66/5 68/65/5 66/67/5 65/68/5
f 65/68/4 66/67/4 62/69/4 61/70/4
f 63/71/1 67/66/1 65/68/1 61/72/1
f 68/65/2 64/73/2 62/74/2 66/67/2
f 74/75/1 76/76/1 75/77/1
f 74/75/1 77/78/1 76/76/1
f 77/78/1 79/79/1 78/80/1
f 77/78/1 80/81/1 79/79/1
f 74/75/1 80/81/1 77/78/1
f 73/82/1 80/81/1 74/75/1
f 73/82/1 71/83/1 80/81/1
f 71/83/1 69/84/1 80/81/1
f 73/82/1 72/85/1 71/83/1
f 70/86/1 69/84/1 71/83/1
f 86/87/2 87/88/2 88/89/2
f 86/87/2 88/89/2 89/90/2
f 89/90/2 90/91/2 91/92/2
f 89/90/2 91/92/2 92/93/2
f 86/87/2 89/90/2 92/93/2
f 85/94/2 86/87/2 92/93/2
f 85/94/2 92/93/2 83/95/2
f 83/95/2 92/93/2 81/96/2
f 85/94/2 83/95/2 84/97/2
f 82/98/2 83/95/2 81/96/2
f 124/99/1 118/100/1 117/101/1
f 124/99/1 123/102/1 118/100/1
f 123/102/1 119/103/1 118/100/1
f 122/104/1 119/103/1 123/102/1
f 122/104/1 120/105/1 119/103/1
f 122/104/1 121/106/1 120/105/1
f 132/107/2 125/108/2 126/109/2
f 132/107/2 126/109/2 131/110/2
f 131/110/2 126/109/2 127/111/2
f 130/112/2 131/110/2 127/111/2
f 130/112/2 127/111/2 128/113/2
f 130/112/2 128/113/2 129/114/2
s 1
f 20/115/7 22/116/8 21/117/8 19/118/7
f 22/116/8 24/119/9 23/120/9 21/117/8
f 24/119/9 26/121/10 25/122/10 23/120/9
f 26/121/10 28/123/11 27/124/11 25/122/10
f 28/123/11 30/125/12 29/126/12 27/124/11
f 30/125/12 32/127/13 31/128/13 29/126/12
f 32/127/13 34/129/14 33/130/14 31/128/13
f 34/129/14 36/131/15 35/132/15 33/130/14
f 36/131/15 20/133/7 19/134/7 35/132/15
f 94/135/16 96/136/17 95/137/17 93/138/16
f 96/136/17 98/139/18 97/140/18 95/137/17
f 98/139/18 100/141/19 99/142/19 97/140/18
f 100/141/19 102/143/20 101/144/20 99/142/19
f 102/143/20 104/145/21 103/146/21 101/144/20
f 104/145/21 106/147/22 105/148/22 103/146/21
f 106/147/22 108/149/23 107/150/23 105/148/22
f 108/149/23 110/151/24 109/152/24 107/150/23
f 110/151/24 112/153/25 111/154/25 109/152/24
f 112/153/25 114/155/26 113/156/26 111/154/25
f 114/155/26 116/157/27 115/158/27 113/156/26
f 116/157/27 94/159/16 93/160/16 115/158/27
f 134/161/28 136/162/29 135/163/29 133/164/28
f 136/162/29 138/165/29 137/166/29 135/163/29
f 138/165/29 140/167/30 139/168/30 137/166/29
f 140/167/30 142/169/9 141/170/9 139/168/30
f 142/169/9 144/171/31 143/172/31 141/170/9
f 144/171/31 146/173/31 145/174/31 143/172/31
f 146/173/31 148/175/10 147/176/10 145/174/31
f 148/175/10 134/177/28 133/178/28 147/176/10
