# Blender 3.2.2
# www.blender.org
mtllib axes.mtl
o Cube.001
v -1.000000 -1.000000 1.000000
v -1.000000 1.000000 1.000000
v -1.000000 -1.000000 -1.000000
v -1.000000 1.000000 -1.000000
v 1.000000 -1.000000 1.000000
v 1.000000 1.000000 1.000000
v 1.000000 -1.000000 -1.000000
v 1.000000 1.000000 -1.000000
v 8.018091 0.079739 -0.079738
v 8.018091 -0.079739 -0.079738
v 8.018091 0.079739 0.079740
v 8.018091 -0.079739 0.079740
v 3.262879 0.079739 -0.079739
v 3.262879 -0.079739 -0.079738
v 3.262879 0.079739 0.079739
v 3.262879 -0.079739 0.079740
v -0.079738 2.823995 -0.079739
v -0.079738 2.823995 0.079739
v 0.079739 2.823995 -0.079739
v 0.079739 2.823995 0.079739
v -0.079739 7.579207 -0.079740
v -0.079739 7.579207 0.079738
v 0.079738 7.579207 -0.079740
v 0.079738 7.579207 0.079738
v -0.079737 0.079738 -8.018086
v -0.079737 -0.079740 -8.018086
v 0.079740 0.079738 -8.018086
v 0.079740 -0.079740 -8.018086
v -0.079739 0.079738 -3.262874
v -0.079739 -0.079740 -3.262874
v 0.079738 0.079738 -3.262874
v 0.079738 -0.079740 -3.262874
v 2.837214 -0.361624 0.060000
v 2.719214 -0.361624 0.060000
v 2.487214 -0.079624 0.060000
v 2.252214 -0.361624 0.060000
v 2.133214 -0.361624 0.060000
v 2.427214 -0.008624 0.060000
v 2.154214 0.320376 0.060000
v 2.273214 0.320376 0.060000
v 2.487214 0.060376 0.060000
v 2.700214 0.320376 0.060000
v 2.818214 0.320376 0.060000
v 2.546214 -0.008624 0.060000
v 2.837214 -0.361624 -0.060000
v 2.719214 -0.361624 -0.060000
v 2.487214 -0.079624 -0.060000
v 2.252214 -0.361624 -0.060000
v 2.133214 -0.361624 -0.060000
v 2.427214 -0.008624 -0.060000
v 2.154214 0.320376 -0.060000
v 2.273214 0.320376 -0.060000
v 2.487214 0.060376 -0.060000
v 2.700214 0.320376 -0.060000
v 2.818214 0.320376 -0.060000
v 2.546214 -0.008624 -0.060000
v 2.837214 -0.361624 -0.060000
v 2.837214 -0.361624 0.060000
v 2.719214 -0.361624 -0.060000
v 2.719214 -0.361624 0.060000
v 2.487214 -0.079624 -0.060000
v 2.487214 -0.079624 0.060000
v 2.252214 -0.361624 -0.060000
v 2.252214 -0.361624 0.060000
v 2.133214 -0.361624 -0.060000
v 2.133214 -0.361624 0.060000
v 2.427214 -0.008624 -0.060000
v 2.427214 -0.008624 0.060000
v 2.154214 0.320376 -0.060000
v 2.154214 0.320376 0.060000
v 2.273214 0.320376 -0.060000
v 2.273214 0.320376 0.060000
v 2.487214 0.060376 -0.060000
v 2.487214 0.060376 0.060000
v 2.700214 0.320376 -0.060000
v 2.700214 0.320376 0.060000
v 2.818214 0.320376 -0.060000
v 2.818214 0.320376 0.060000
v 2.546214 -0.008624 -0.060000
v 2.546214 -0.008624 0.060000
v 0.055632 0.320376 -2.356121
v 0.055632 0.320376 -2.944121
v 0.055632 -0.273624 -2.510121
v 0.055632 -0.273624 -2.944121
v 0.055632 -0.361624 -2.944121
v 0.055632 -0.361624 -2.329121
v 0.055632 0.232376 -2.763121
v 0.055632 0.232376 -2.356121
v -0.064368 0.320376 -2.356121
v -0.064368 0.320376 -2.944121
v -0.064368 -0.273624 -2.510121
v -0.064368 -0.273624 -2.944121
v -0.064368 -0.361624 -2.944121
v -0.064368 -0.361624 -2.329121
v -0.064368 0.232376 -2.763121
v -0.064368 0.232376 -2.356121
v -0.064368 0.320376 -2.356121
v 0.055632 0.320376 -2.356121
v -0.064368 0.320376 -2.944121
v 0.055632 0.320376 -2.944121
v -0.064368 -0.273624 -2.510121
v 0.055632 -0.273624 -2.510121
v -0.064368 -0.273624 -2.944121
v 0.055632 -0.273624 -2.944121
v -0.064368 -0.361624 -2.944121
v 0.055632 -0.361624 -2.944121
v -0.064368 -0.361624 -2.329121
v 0.055632 -0.361624 -2.329121
v -0.064368 0.232376 -2.763121
v 0.055632 0.232376 -2.763121
v -0.064368 0.232376 -2.356121
v 0.055632 0.232376 -2.356121
v 0.055632 2.441541 -0.275466
v 0.055632 2.119541 -0.022466
v 0.055632 1.759541 -0.022466
v 0.055632 1.759541 0.075534
v 0.055632 2.120541 0.075534
v 0.055632 2.441541 0.328534
v 0.055632 2.441541 0.210534
v 0.055632 2.206541 0.027534
v 0.055632 2.441541 -0.157466
v -0.064368 2.441541 -0.275466
v -0.064368 2.119541 -0.022466
v -0.064368 1.759541 -0.022466
v -0.064368 1.759541 0.075534
v -0.064368 2.120541 0.075534
v -0.064368 2.441541 0.328534
v -0.064368 2.441541 0.210534
v -0.064368 2.206541 0.027534
v -0.064368 2.441541 -0.157466
v -0.064368 2.441541 -0.275466
v 0.055632 2.441541 -0.275466
v -0.064368 2.119541 -0.022466
v 0.055632 2.119541 -0.022466
v -0.064368 1.759541 -0.022466
v 0.055632 1.759541 -0.022466
v -0.064368 1.759541 0.075534
v 0.055632 1.759541 0.075534
v -0.064368 2.120541 0.075534
v 0.055632 2.120541 0.075534
v -0.064368 2.441541 0.328534
v 0.055632 2.441541 0.328534
v -0.064368 2.441541 0.210534
v 0.055632 2.441541 0.210534
v -0.064368 2.206541 0.027534
v 0.055632 2.206541 0.027534
v -0.064368 2.441541 -0.157466
v 0.055632 2.441541 -0.157466
vn -1.0000 -0.0000 -0.0000
vn -0.0000 -0.0000 -1.0000
vn 1.0000 -0.0000 -0.0000
vn -0.0000 -0.0000 1.0000
vn -0.0000 -1.0000 -0.0000
vn -0.0000 1.0000 -0.0000
vn 0.9045 -0.4266 -0.0000
vn -0.4270 -0.9042 -0.0000
vn -0.0032 -1.0000 -0.0000
vn 0.4242 -0.9056 -0.0000
vn -0.9055 -0.4243 -0.0000
vn -1.0000 0.0009 -0.0000
vn -0.9051 0.4251 -0.0000
vn 0.4269 0.9043 -0.0000
vn -0.0011 1.0000 -0.0000
vn -0.4279 0.9038 -0.0000
vn 0.9048 0.4259 -0.0000
vn 1.0000 -0.0007 -0.0000
vn -0.0000 0.7071 0.7071
vn -0.0000 0.4528 -0.8916
vn -0.0000 0.7071 -0.7071
vn -0.0000 -0.7071 -0.7071
vn -0.0000 -0.4528 0.8916
vn -0.0000 -0.7071 0.7071
vn -0.0000 0.4371 -0.8994
vn -0.0000 -0.3269 -0.9451
vn -0.0000 -0.3276 0.9448
vn -0.0000 0.4365 0.8997
vn -0.0000 0.8984 -0.4391
vn -0.0000 1.0000 -0.0026
vn -0.0000 0.8996 0.4367
vt 0.375000 0.000000
vt 0.375000 1.000000
vt 0.125000 0.750000
vt 0.625000 0.000000
vt 0.625000 1.000000
vt 0.875000 0.750000
vt 0.375000 0.250000
vt 0.125000 0.500000
vt 0.625000 0.250000
vt 0.875000 0.500000
vt 0.375000 0.750000
vt 0.625000 0.750000
vt 0.375000 0.500000
vt 0.625000 0.500000
vt 0.375000 0.000000
vt 0.375000 1.000000
vt 0.125000 0.750000
vt 0.625000 0.000000
vt 0.625000 1.000000
vt 0.875000 0.750000
vt 0.375000 0.250000
vt 0.125000 0.500000
vt 0.625000 0.250000
vt 0.875000 0.500000
vt 0.375000 0.750000
vt 0.625000 0.750000
vt 0.375000 0.500000
vt 0.625000 0.500000
vt 0.375000 0.000000
vt 0.375000 1.000000
vt 0.125000 0.750000
vt 0.625000 0.000000
vt 0.625000 1.000000
vt 0.875000 0.750000
vt 0.375000 0.250000
vt 0.125000 0.500000
vt 0.625000 0.250000
vt 0.875000 0.500000
vt 0.375000 0.750000
vt 0.625000 0.750000
vt 0.375000 0.500000
vt 0.625000 0.500000
vt 0.375000 0.000000
vt 0.375000 1.000000
vt 0.125000 0.750000
vt 0.625000 0.000000
vt 0.625000 1.000000
vt 0.875000 0.750000
vt 0.375000 0.250000
vt 0.125000 0.500000
vt 0.625000 0.250000
vt 0.875000 0.500000
vt 0.375000 0.750000
vt 0.625000 0.750000
vt 0.375000 0.500000
vt 0.625000 0.500000
vt 0.000000 0.000000
vt 0.090909 0.000000
vt 0.181818 0.000000
vt 0.272727 0.000000
vt 0.363636 0.000000
vt 0.454545 0.000000
vt 0.545455 0.000000
vt 0.636364 0.000000
vt 0.727273 0.000000
vt 0.818182 0.000000
vt 0.909091 0.000000
vt 1.000000 0.000000
vt 0.000000 0.000000
vt 0.090909 0.000000
vt 0.181818 0.000000
vt 0.272727 0.000000
vt 0.363636 0.000000
vt 0.454545 0.000000
vt 0.545455 0.000000
vt 0.636364 0.000000
vt 0.727273 0.000000
vt 0.818182 0.000000
vt 0.909091 0.000000
vt 1.000000 0.000000
vt 0.000000 0.000000
vt 1.000000 0.000000
vt 0.000000 1.000000
vt 1.000000 1.000000
vt 0.083333 0.000000
vt 0.083333 1.000000
vt 0.166667 0.000000
vt 0.166667 1.000000
vt 0.250000 0.000000
vt 0.250000 1.000000
vt 0.333333 0.000000
vt 0.333333 1.000000
vt 0.416667 0.000000
vt 0.416667 1.000000
vt 0.500000 0.000000
vt 0.500000 1.000000
vt 0.583333 0.000000
vt 0.583333 1.000000
vt 0.666667 0.000000
vt 0.666667 1.000000
vt 0.750000 0.000000
vt 0.750000 1.000000
vt 0.833333 0.000000
vt 0.833333 1.000000
vt 0.916667 0.000000
vt 0.916667 1.000000
vt 0.000000 0.000000
vt 0.142857 0.000000
vt 0.285714 0.000000
vt 0.428571 0.000000
vt 0.571429 0.000000
vt 0.714286 0.000000
vt 0.857143 0.000000
vt 1.000000 0.000000
vt 0.000000 0.000000
vt 0.142857 0.000000
vt 0.285714 0.000000
vt 0.428571 0.000000
vt 0.571429 0.000000
vt 0.714286 0.000000
vt 0.857143 0.000000
vt 1.000000 0.000000
vt 0.000000 0.000000
vt 1.000000 0.000000
vt 0.000000 1.000000
vt 1.000000 1.000000
vt 0.125000 0.000000
vt 0.125000 1.000000
vt 0.250000 0.000000
vt 0.250000 1.000000
vt 0.375000 0.000000
vt 0.375000 1.000000
vt 0.500000 0.000000
vt 0.500000 1.000000
vt 0.625000 0.000000
vt 0.625000 1.000000
vt 0.750000 0.000000
vt 0.750000 1.000000
vt 0.875000 0.000000
vt 0.875000 1.000000
vt 0.000000 0.000000
vt 0.125000 0.000000
vt 0.250000 0.000000
vt 0.375000 0.000000
vt 0.500000 0.000000
vt 0.625000 0.000000
vt 0.750000 0.000000
vt 0.875000 0.000000
vt 1.000000 0.000000
vt 0.000000 0.000000
vt 0.125000 0.000000
vt 0.250000 0.000000
vt 0.375000 0.000000
vt 0.500000 0.000000
vt 0.625000 0.000000
vt 0.750000 0.000000
vt 0.875000 0.000000
vt 1.000000 0.000000
vt 0.000000 0.000000
vt 1.000000 0.000000
vt 0.000000 1.000000
vt 1.000000 1.000000
vt 0.111111 0.000000
vt 0.111111 1.000000
vt 0.222222 0.000000
vt 0.222222 1.000000
vt 0.333333 0.000000
vt 0.333333 1.000000
vt 0.444444 0.000000
vt 0.444444 1.000000
vt 0.555556 0.000000
vt 0.555556 1.000000
vt 0.666667 0.000000
vt 0.666667 1.000000
vt 0.777778 0.000000
vt 0.777778 1.000000
vt 0.888889 0.000000
vt 0.888889 1.000000
s 0
f 1/1/1 2/4/1 4/9/1 3/7/1
f 3/7/2 4/9/2 8/14/2 7/13/2
f 7/13/3 8/14/3 6/12/3 5/11/3
f 5/11/4 6/12/4 2/5/4 1/2/4
f 3/8/5 7/13/5 5/11/5 1/3/5
f 8/14/6 4/10/6 2/6/6 6/12/6
f 9/15/1 10/18/1 12/23/1 11/21/1
f 11/21/2 12/23/2 16/28/2 15/27/2
f 15/27/3 16/28/3 14/26/3 13/25/3
f 13/25/4 14/26/4 10/19/4 9/16/4
f 11/22/5 15/27/5 13/25/5 9/17/5
f 16/28/6 12/24/6 10/20/6 14/26/6
f 17/29/6 18/32/6 20/37/6 19/35/6
f 19/35/1 20/37/1 24/42/1 23/41/1
f 23/41/5 24/42/5 22/40/5 21/39/5
f 21/39/3 22/40/3 18/33/3 17/30/3
f 19/36/4 23/41/4 21/39/4 17/31/4
f 24/42/2 20/38/2 18/34/2 22/40/2
f 25/43/4 26/46/4 28/51/4 27/49/4
f 27/49/1 28/51/1 32/56/1 31/55/1
f 31/55/2 32/56/2 30/54/2 29/53/2
f 29/53/3 30/54/3 26/47/3 25/44/3
f 27/50/5 31/55/5 29/53/5 25/45/5
f 32/56/6 28/52/6 26/48/6 30/54/6
f 38/62/4 40/64/4 39/63/4
f 38/62/4 41/65/4 40/64/4
f 41/65/4 43/67/4 42/66/4
f 41/65/4 44/68/4 43/67/4
f 38/62/4 44/68/4 41/65/4
f 37/61/4 44/68/4 38/62/4
f 37/61/4 35/59/4 44/68/4
f 35/59/4 33/57/4 44/68/4
f 37/61/4 36/60/4 35/59/4
f 34/58/4 33/57/4 35/59/4
f 50/74/2 51/75/2 52/76/2
f 50/74/2 52/76/2 53/77/2
f 53/77/2 54/78/2 55/79/2
f 53/77/2 55/79/2 56/80/2
f 50/74/2 53/77/2 56/80/2
f 49/73/2 50/74/2 56/80/2
f 49/73/2 56/80/2 47/71/2
f 47/71/2 56/80/2 45/69/2
f 49/73/2 47/71/2 48/72/2
f 46/70/2 47/71/2 45/69/2
s 1
f 58/83/7 60/86/8 59/85/8 57/81/7
f 60/86/8 62/88/9 61/87/9 59/85/8
f 62/88/9 64/90/10 63/89/10 61/87/9
f 64/90/10 66/92/11 65/91/11 63/89/10
f 66/92/11 68/94/12 67/93/12 65/91/11
f 68/94/12 70/96/13 69/95/13 67/93/12
f 70/96/13 72/98/14 71/97/14 69/95/13
f 72/98/14 74/100/15 73/99/15 71/97/14
f 74/100/15 76/102/16 75/101/16 73/99/15
f 76/102/16 78/104/17 77/103/17 75/101/16
f 78/104/17 80/106/18 79/105/18 77/103/17
f 80/106/18 58/84/7 57/82/7 79/105/18
s 0
f 88/114/3 82/108/3 81/107/3
f 88/114/3 87/113/3 82/108/3
f 87/113/3 83/109/3 82/108/3
f 86/112/3 83/109/3 87/113/3
f 86/112/3 84/110/3 83/109/3
f 86/112/3 85/111/3 84/110/3
f 96/122/1 89/115/1 90/116/1
f 96/122/1 90/116/1 95/121/1
f 95/121/1 90/116/1 91/117/1
f 94/120/1 95/121/1 91/117/1
f 94/120/1 91/117/1 92/118/1
f 94/120/1 92/118/1 93/119/1
s 1
f 98/125/19 100/128/20 99/127/20 97/123/19
f 100/128/20 102/130/20 101/129/20 99/127/20
f 102/130/20 104/132/21 103/131/21 101/129/20
f 104/132/21 106/134/22 105/133/22 103/131/21
f 106/134/22 108/136/23 107/135/23 105/133/22
f 108/136/23 110/138/23 109/137/23 107/135/23
f 110/138/23 112/140/24 111/139/24 109/137/23
f 112/140/24 98/126/19 97/124/19 111/139/24
s 0
f 117/145/3 119/147/3 118/146/3
f 117/145/3 120/148/3 119/147/3
f 120/148/3 113/141/3 121/149/3
f 120/148/3 114/142/3 113/141/3
f 117/145/3 114/142/3 120/148/3
f 116/144/3 114/142/3 117/145/3
f 116/144/3 115/143/3 114/142/3
f 126/154/1 127/155/1 128/156/1
f 126/154/1 128/156/1 129/157/1
f 129/157/1 130/158/1 122/150/1
f 129/157/1 122/150/1 123/151/1
f 126/154/1 129/157/1 123/151/1
f 125/153/1 126/154/1 123/151/1
f 125/153/1 123/151/1 124/152/1
s 1
f 132/161/25 134/164/26 133/163/26 131/159/25
f 134/164/26 136/166/22 135/165/22 133/163/26
f 136/166/22 138/168/24 137/167/24 135/165/22
f 138/168/24 140/170/27 139/169/27 137/167/24
f 140/170/27 142/172/28 141/171/28 139/169/27
f 142/172/28 144/174/29 143/173/29 141/171/28
f 144/174/29 146/176/30 145/175/30 143/173/29
f 146/176/30 148/178/31 147/177/31 145/175/30
f 148/178/31 132/162/25 131/160/25 147/177/31
