# Blender 3.3.1
# www.blender.org
mtllib testmats.mtl
o Plane
v -1.000000 0.000000 1.734186
v 1.000000 0.000000 1.734186
v -1.000000 0.000000 -0.265814
v 1.000000 0.000000 -0.265814
vn -0.0000 1.0000 -0.0000
vt 0.000000 0.000000
vt 1.000000 0.000000
vt 0.000000 1.000000
vt 1.000000 1.000000
s 0
usemtl Material.002
f 2/2/1 3/3/1 1/1/1
f 2/2/1 4/4/1 3/3/1
o Plane.001
v -1.000000 0.000000 -1.142335
v 1.000000 0.000000 -1.142335
v -1.000000 0.000000 -3.142335
v 1.000000 0.000000 -3.142335
vn -0.0000 1.0000 -0.0000
vt 0.000000 0.000000
vt 1.000000 0.000000
vt 0.000000 1.000000
vt 1.000000 1.000000
s 0
usemtl Material.003
f 6/6/2 7/7/2 5/5/2
f 6/6/2 8/8/2 7/7/2
